<svg xmlns="http://www.w3.org/2000/svg" viewBox="0 0 100 100" preserveAspectRatio="none">
  <rect width="100" height="100" fill="#eef3e0"/>
  <!-- 江 -->
  <path d="M104,14 C80,24 68,42 54,56 C40,70 22,79 -4,86 L-4,104 L104,104 Z" fill="#a8dcef" opacity=".9"/>
  <path d="M104,14 C80,24 68,42 54,56 C40,70 22,79 -4,86" stroke="#6fb2d0" stroke-width=".8" fill="none"/>
  <!-- 街区 -->
  <rect x="6" y="16" width="24" height="18" rx="1.5" fill="#dfe7cf"/>
  <rect x="34" y="12" width="20" height="14" rx="1.5" fill="#e4ecd6"/>
  <rect x="10" y="42" width="16" height="14" rx="1.5" fill="#e4ecd6"/>
  <rect x="48" y="52" width="18" height="16" rx="1.5" fill="#dfe7cf"/>
  <rect x="62" y="26" width="16" height="12" rx="1.5" fill="#e4ecd6"/>
  <!-- 公园 -->
  <ellipse cx="78" cy="86" rx="15" ry="9" fill="#cfe6b8"/>
  <!-- 路 -->
  <line x1="-4" y1="40" x2="104" y2="34" stroke="#ffffff" stroke-width="2.4"/>
  <line x1="30" y1="-4" x2="44" y2="104" stroke="#ffffff" stroke-width="2"/>
  <line x1="60" y1="-4" x2="70" y2="104" stroke="#ffffff" stroke-width="1.6"/>
  <line x1="-4" y1="66" x2="104" y2="70" stroke="#ffffff" stroke-width="1.6"/>
</svg>
